<?xml version="1.0" encoding="utf-8"?>
<!-- Generator: Adobe Illustrator 28.2.0, SVG Export Plug-In . SVG Version: 6.00 Build 0)  -->
<svg version="1.1" id="Layer_1" xmlns:serif="http://www.serif.com/"
	 xmlns="http://www.w3.org/2000/svg" xmlns:xlink="http://www.w3.org/1999/xlink" x="0px" y="0px" viewBox="0 0 645.9 618"
	 style="enable-background:new 0 0 645.9 618;" xml:space="preserve">
<path d="M269.8,231.1c-37.6,10.4-72.5,28.9-108.9,42.2c-19.8,10-43,14.6-64.4,13.5c-54.7-1.3-115.4-51-90.9-109.3
	c7.2-16.1,19.5-29.7,24.9-46.7c33.8-121,79.8-186.5,183.7-69.3c28.2,28.8,51,64.1,79.9,91.2c4.2-4.9,10.4-4,16-2.8
	c11.1,1.3,21.7,1.1,31.8-0.7c8-0.7,11.9-7.4,17.3,1.9C407.8,100.5,458.4-2.3,539.3,3.8c45.4,5.2,51.9,56.4,61.4,92.2
	c6.8,29.2,27.3,53.1,40.4,78.9c5.8,27.6,0.6,55-18.2,75.9c-25.7,28.2-59.6,37.3-96.4,28.5c-38.2-7.4-72.6-19.8-109.9-32.8
	C520.4,300.3,597.4,402,638.8,511.7c5.6,12.6,12.5,55.1,0.3,62.6c-1.9-2.2-2.2-6-4.2-8.6c-1.1-1.9-3.6-2.1-5.3-3.3
	c-21.6-15.8-39.7-30.6-64.8-38.8c-10.5,25.9-16.9,56.5-33.2,80.4c-1.7,2.5-12.9,16.9-14.3,13.4c0.6-137.6-68.2-272.2-168.8-364.1
	c-2-1-0.1-3.5-1.3-4c-17-0.9-31.2-3.8-46.3-0.5c-71.1,69.5-124.2,161.5-152,257.4c-10.1,33.8-13.7,69.8-17,104.6
	c-7.9-8-12.7-20.9-19.8-32.2c-11.3-19.8-15.4-39.6-26.5-59.5c-22.7,13.6-45,28-66.9,43.4c-4,2.8-7.6,5.5-10.9,8
	c-0.6,0.4-1,0.3-1.4-0.3c-4-9.5-3-19.6-1.5-30.5c23.6-98.5,87.2-190,165-253.9c18.9-14.7,36.5-27.5,57.8-36.7
	C239.5,243.3,261,236.6,269.8,231.1z M634.1,191.6c0.6-4.5-1.4-10.5-2.5-16.1c-0.6-2.4-3.7-4.4-5.8-5.7
	c-28.6-18.7-59.4-11.3-90.9-0.1c-52.6,18.9-105,38.4-161.5,46.7c-2.8,0.4,0.7,0.8,1.6,0.7c14.5,0.2,27.9-3.7,41.3-7.1
	c33.4,2.4,69.8-1.1,101.2-14.5c14.9-6.2,28.2-14.5,40-25.1c8.8-7.8,19.2-11.5,31.3-11C609.5,159.7,625.6,173.5,634.1,191.6z
	 M197.4,204.6c10.8-0.2,21.3-3.3,31.9-2.6c18.3,5.9,37.2,10.6,56.5,14c1,0.3,0.4-1.6,0.5-2c-24.1-5.9-49.8-10.1-73.3-17.8
	c-22-6.3-46.5-15.6-71.4-24.2c-17.6-4.2-46.7-10-65.2-11.8c-19.2-1.8-43.7,2.7-59.5,14.9c-5.3,4.6-8.1,21.4-7.2,25.8
	C35.3,113.1,140.2,215.4,197.4,204.6z"/>
</svg>
