<?xml version="1.0" encoding="UTF-8"?>
<svg id="a" data-name="Layer 1" xmlns="http://www.w3.org/2000/svg" viewBox="0 0 118.1849976 184.7159729">
  <defs>
    <style>
      .b {
        fill-rule: evenodd;
      }
    </style>
  </defs>
  <path class="b" d="m55.1129913,148.4189758c2.0080109-1.3439941,4.423996-2.1279907,7.0200043-2.1279907,6.9819946,0,12.651001,5.6689758,12.651001,12.651001,0,1.6569824-.3190002,3.2399902-.9000092,4.690979,3.3940125-2.269989,5.631012-6.1369934,5.631012-10.5229797,0-6.9820251-5.6690063-12.651001-12.651001-12.651001-5.326004,0-9.8870087,3.2979736-11.7510071,7.9599915Zm36.7979889-12.269989c3.0700073-2.309021,5.0570068-5.9820251,5.0570068-10.1160278,0-6.9819946-5.6690063-12.651001-12.651001-12.651001s-12.6509857,5.6690063-12.6509857,12.651001c0,.8680115.0879974,1.7160034.2549896,2.5350037,2.1150055-1.5910034,4.7450104-2.5350037,7.5940094-2.5350037,6.1139984,0,11.220993,4.3470154,12.3959808,10.1160278Zm-12.3959808-43.7910156c0-6.9819946,5.667984-12.651001,12.6509857-12.651001,6.9819946,0,12.651001,5.6690063,12.651001,12.651001s-5.6690063,12.651001-12.651001,12.651001c-6.9830017,0-12.6509857-5.6690063-12.6509857-12.651001Zm12.3959808-43.7910156c3.0700073,2.309021,5.0570068,5.9819946,5.0570068,10.1160278,0,6.9819946-5.6690063,12.651001-12.651001,12.651001s-12.6509857-5.6690063-12.6509857-12.651001c0-.867981.0879974-1.7160034.2549896-2.5350342,2.1150055,1.5910034,4.7450104,2.5350342,7.5940094,2.5350342,6.1139984,0,11.220993-4.3469849,12.3959808-10.1160278Zm-36.7979889-12.2699585c2.0080109,1.3439941,4.423996,2.1279907,7.0200043,2.1279907,6.9819946,0,12.651001-5.6690063,12.651001-12.651001,0-1.6570435-.3190002-3.2399902-.9000092-4.69104,3.3940125,2.2700195,5.631012,6.1370239,5.631012,10.5230103,0,6.9819946-5.6690063,12.651001-12.651001,12.651001-5.326004,0-9.8870087-3.2979736-11.7510071-7.9599609ZM0,3.6659546C8.2009888,1.2789917,16.8659973,0,25.8269958,0c50.973999,0,92.3580017,41.3849487,92.3580017,92.3579712,0,50.973999-41.3840027,92.3580017-92.3580017,92.3580017-8.9609985,0-17.6260071-1.2789917-25.8269958-3.6659851,38.4189911-11.1810303,66.5309906-46.6800232,66.5309906-88.6920166C66.5309906,50.3459473,38.4189911,14.8469849,0,3.6659546Z"/>
</svg>