<?xml version="1.0" encoding="UTF-8"?>
<svg id="Layer_1" data-name="Layer 1" xmlns="http://www.w3.org/2000/svg" xmlns:serif="http://www.serif.com/" version="1.1" viewBox="0 0 707.3 675.8">
  <defs>
    <style>
      .cls-1 {
        fill: #000;
        fill-rule: evenodd;
        stroke-width: 0px;
      }
    </style>
  </defs>
  <path class="cls-1" d="M589.8,448c9.8,71,52.1,175.3-27.3,219.1-57.9,28.3-146.5-25.3-208.7-52.4-1.8-.9-3.9-.7-6.2.4-15.1,7.4-30.1,15.8-45.3,22.3-40.3,16.3-80.1,36-124.1,38.3-50.8,1.3-84.5-48.2-81.3-95.6,1-31.9,7.5-70.6,13.6-103.5,1.6-8.5,3.7-17.2,6.1-26.1,0-4.7-5.6-8.3-8.1-11.4-32.1-31.3-73-73-98.3-116.8-29.9-56.8,10.1-110.3,68.6-121.7,169.6-49.9,98.3,18.4,172.7-111.7,26.8-45.6,65.4-107.4,127.4-83.7,54.4,25.7,88.9,111.4,115,159.9,2.2,4.9,5.4,8.9,10.7,9.7,53.5,8.2,94.9,14.8,141.4,31.5,48.4,14.6,77.2,69.2,51.8,114.2-27,48.3-68.4,89-108,127.4ZM451.2,216.2c-96.8-197.3-95.5-213.2-194.9-3.7-4.1,9.3-11.3,14.7-21.4,16.4-51.7,7.6-103.8,18.3-153.3,32-21.3,5.1-28.4,28.2-13.6,43.6,26.5,33.4,38.7,47.7,72.8,83,11.3,11.7,24.1,23.4,35.9,35.2,4.1,4.2,5.5,9.2,4,15.3-5.2,26.2-41.1,163.1-13.5,174.1,28.9,16.3,139.8-45.1,173.2-59.5,7.6-3.8,12.7-5.2,20.1-1.7,40.4,19.4,72.1,35,117.9,52.6,29.6,12.1,73.5,28.2,71.2-21.5-1.7-39.8-8.8-72.5-15.9-111.5-2.3-12.2-5.5-23.5-7.8-35-1.3-6.5,4.1-12.4,8.3-16.3,30.8-29.6,68.9-69.4,106-116.8,16.7-17.9.4-39.8-20.2-43.5-48.2-13.9-102.5-23.4-153.2-30.2-6.7-.9-12.6-6.5-15.4-12.6ZM336.6,409.2c-12.9-4.4-22.2-13-27.8-25.9-5.8-12.7-7-35,10.2-38.2,8.3-.7,14.5,5.2,15.7,13.4.7,4.9,0,9.4,3.3,13.5,11.9,14.5,32.3,5.8,32-12.3-.1-10.9,14.1-20.1,23.1-11.3,5.3,5.2,7.5,11.7,6.5,19.5-2.5,31.3-34.2,51.6-63.1,41.3ZM488,380.6c-61,13.3-82.8-77.2-22.3-93,61-13.3,82.8,77.2,22.3,93ZM489.6,334.6c18.8-18.2-7.2-46-26.6-28.4-18.8,18.2,7.2,46,26.6,28.4ZM208.7,378.3c-65-34.4-.5-129.4,54.6-78,38.8,38.7-6.7,98.9-54.6,78ZM249.2,334.6c18.8-18.2-7.2-46-26.6-28.4-18.8,18.2,7.2,46,26.6,28.4Z"/>
</svg>